<?xml version="1.0" encoding="UTF-8" standalone="no"?>
<!-- Created with Inkscape (http://www.inkscape.org/) -->

<svg
   width="40.904194mm"
   height="21.102571mm"
   viewBox="0 0 40.904194 21.102572"
   version="1.1"
   id="svg5"
   sodipodi:docname="duality-gap.svg"
   inkscape:version="1.1 (c68e22c387, 2021-05-23)"
   xmlns:inkscape="http://www.inkscape.org/namespaces/inkscape"
   xmlns:sodipodi="http://sodipodi.sourceforge.net/DTD/sodipodi-0.dtd"
   xmlns="http://www.w3.org/2000/svg"
   xmlns:svg="http://www.w3.org/2000/svg"
   xmlns:ns0="http://www.iki.fi/pav/software/textext/">
  <sodipodi:namedview
     id="namedview7"
     pagecolor="#ffffff"
     bordercolor="#666666"
     borderopacity="1.0"
     inkscape:pageshadow="2"
     inkscape:pageopacity="0.0"
     inkscape:pagecheckerboard="0"
     inkscape:document-units="mm"
     showgrid="false"
     inkscape:zoom="1.8973437"
     inkscape:cx="12.385737"
     inkscape:cy="152.05469"
     inkscape:window-width="1912"
     inkscape:window-height="1165"
     inkscape:window-x="1204"
     inkscape:window-y="391"
     inkscape:window-maximized="0"
     inkscape:current-layer="svg5"
     fit-margin-top="0"
     fit-margin-left="0"
     fit-margin-right="0"
     fit-margin-bottom="0" />
  <defs
     id="defs2">
    <marker
       style="overflow:visible"
       id="Arrow2Lend"
       refX="0"
       refY="0"
       orient="auto"
       inkscape:stockid="Arrow2Lend"
       inkscape:isstock="true">
      <path
         transform="matrix(-1.1,0,0,-1.1,-1.1,0)"
         d="M 8.7185878,4.0337352 -2.2072895,0.01601326 8.7185884,-4.0017078 c -1.7454984,2.3720609 -1.7354408,5.6174519 -6e-7,8.035443 z"
         style="fill:context-stroke;fill-rule:evenodd;stroke-width:0.625;stroke-linejoin:round"
         id="path12358" />
    </marker>
    <marker
       style="overflow:visible"
       id="Arrow2Lstart"
       refX="0"
       refY="0"
       orient="auto"
       inkscape:stockid="Arrow2Lstart"
       inkscape:isstock="true">
      <path
         transform="matrix(1.1,0,0,1.1,1.1,0)"
         d="M 8.7185878,4.0337352 -2.2072895,0.01601326 8.7185884,-4.0017078 c -1.7454984,2.3720609 -1.7354408,5.6174519 -6e-7,8.035443 z"
         style="fill:context-stroke;fill-rule:evenodd;stroke-width:0.625;stroke-linejoin:round"
         id="path12355" />
    </marker>
    <marker
       inkscape:stockid="ArrowAxisStart"
       orient="auto"
       refY="0"
       refX="0"
       id="ArrowAxisStart"
       style="overflow:visible">
      <path
         d="M 0,0 5,-5 -12.5,0 5,5 Z"
         style="fill:#000000;fill-opacity:1;fill-rule:evenodd;stroke:#000000;stroke-width:1;stroke-opacity:1"
         transform="matrix(0.4,0,0,0.4,3.5272,0)"
         id="path519" />
    </marker>
    <marker
       inkscape:stockid="ArrowAxisEnd"
       orient="auto"
       refY="0"
       refX="0"
       id="ArrowAxisEnd"
       style="overflow:visible">
      <path
         d="M 0,0 5,-5 -12.5,0 5,5 Z"
         style="fill:#000000;fill-opacity:1;fill-rule:evenodd;stroke:#000000;stroke-width:1;stroke-opacity:1"
         transform="matrix(-0.4,0,0,-0.4,-3.5272,0)"
         id="path522" />
    </marker>
  </defs>
  <g
     inkscape:label="Layer 1"
     inkscape:groupmode="layer"
     id="layer1"
     transform="translate(-83.036124,-131.33053)" />
  <g
     transform="matrix(0.352778,0,0,0.352778,26.612036,18.699448)"
     ns0:version="1.4.0"
     ns0:texconverter="pdflatex"
     ns0:pdfconverter="inkscape"
     ns0:text="$\\mathcal{D}$"
     ns0:preamble="/home/jola/.config/inkscape/extensions/inkscapeMadeEasy/basicLatexPackages.tex"
     ns0:scale="1.0"
     ns0:alignment="middle center"
     ns0:jacobian_sqrt="0.352778"
     id="g13315">
    <defs
       id="id-336df8be-04e7-4ac8-9f6c-8dfc93b6892c">
      <g
         id="id-ca38f721-9d4a-4045-a0dc-85b5d01f035c">
        <symbol
           overflow="visible"
           id="id-da076883-2886-4f1d-ac08-f5dc678fe468">
          <path
             style="stroke:none;stroke-width:0"
             d=""
             id="id-7be9acb6-e3c3-4b92-8015-322b60fc46d1" />
        </symbol>
        <symbol
           overflow="visible"
           id="id-8e28ae31-c315-481f-a222-d500cc92480d">
          <path
             style="stroke:none;stroke-width:0"
             d="m 2.03125,0 c 2.328125,0 5.609375,-1.78125 5.609375,-4.5 0,-0.890625 -0.421875,-1.4375 -0.90625,-1.75 C 5.875,-6.8125 4.953125,-6.8125 4,-6.8125 c -0.84375,0 -1.4375,0 -2.28125,0.359375 -1.3125,0.59375 -1.515625,1.421875 -1.515625,1.5 0,0.0625 0.046875,0.078125 0.109375,0.078125 0.15625,0 0.390625,-0.140625 0.46875,-0.1875 0.203125,-0.140625 0.234375,-0.203125 0.296875,-0.390625 0.140625,-0.40625 0.421875,-0.75 1.671875,-0.8125 -0.15625,2.09375 -0.671875,4 -1.359375,5.734375 -0.375,0.125 -0.609375,0.359375 -0.609375,0.46875 C 0.78125,-0.015625 0.78125,0 1,0 Z m 0.046875,-0.546875 c 1.140625,-2.78125 1.34375,-4.515625 1.484375,-5.71875 0.671875,0 3.21875,0 3.21875,2.203125 0,1.953125 -1.75,3.515625 -4.15625,3.515625 z m 0,0"
             id="id-f54bb026-ec0a-4151-befc-24f4b4102cfc" />
        </symbol>
      </g>
    </defs>
    <g
       id="id-ae0ab14b-23fd-4416-aea8-14e0ec30b106"
       transform="translate(-148.915,-127.953)">
      <g
         style="fill:#000000"
         id="id-a94d5dda-2bcb-4aeb-b414-8314dbef6034">
        <g
           id="id-9841652c-7aa1-4172-991c-192ef234a93e"
           transform="translate(148.712,134.765)">
          <path
             style="color:#000000;-inkscape-stroke:none"
             d="m 2.03125,0 c 2.328125,0 5.609375,-1.78125 5.609375,-4.5 0,-0.890625 -0.421875,-1.4375 -0.90625,-1.75 C 5.875,-6.8125 4.953125,-6.8125 4,-6.8125 c -0.84375,0 -1.4375,0 -2.28125,0.359375 -1.3125,0.59375 -1.515625,1.421875 -1.515625,1.5 0,0.0625 0.046875,0.078125 0.109375,0.078125 0.15625,0 0.390625,-0.140625 0.46875,-0.1875 0.203125,-0.140625 0.234375,-0.203125 0.296875,-0.390625 0.140625,-0.40625 0.421875,-0.75 1.671875,-0.8125 -0.15625,2.09375 -0.671875,4 -1.359375,5.734375 -0.375,0.125 -0.609375,0.359375 -0.609375,0.46875 C 0.78125,-0.015625 0.78125,0 1,0 Z m 0.046875,-0.546875 c 1.140625,-2.78125 1.34375,-4.515625 1.484375,-5.71875 0.671875,0 3.21875,0 3.21875,2.203125 0,1.953125 -1.75,3.515625 -4.15625,3.515625 z m 0,0"
             id="id-ef3b002a-9dbd-43e9-b897-8a105448a542" />
        </g>
      </g>
    </g>
  </g>
  <g
     transform="matrix(0.352778,0,0,0.352778,33.129779,1.76389e-4)"
     ns0:version="1.4.0"
     ns0:texconverter="pdflatex"
     ns0:pdfconverter="inkscape"
     ns0:text="$\\mathcal{P}$"
     ns0:preamble="/home/jola/.config/inkscape/extensions/inkscapeMadeEasy/basicLatexPackages.tex"
     ns0:scale="1.0"
     ns0:alignment="middle center"
     ns0:jacobian_sqrt="0.352778"
     id="g13412">
    <defs
       id="id-bfcb516c-a589-4934-b3c9-cd27181997a7">
      <g
         id="id-67f334cf-01d4-43f9-9957-9a36d659c23f">
        <symbol
           overflow="visible"
           id="id-36a0483c-b605-4226-a58d-a98da4653d76">
          <path
             style="stroke:none;stroke-width:0"
             d=""
             id="id-fe34bce8-c890-40f6-97ff-6f42019e16d6" />
        </symbol>
        <symbol
           overflow="visible"
           id="id-4ab3108c-995d-445f-8c2c-59aa2e2d4f5a">
          <path
             style="stroke:none;stroke-width:0"
             d="m 3.46875,-6.8125 c -1.40625,0 -2.46875,0.6875 -2.875,1.15625 -0.359375,0.390625 -0.390625,0.6875 -0.390625,0.703125 0,0.0625 0.046875,0.078125 0.109375,0.078125 0.15625,0 0.390625,-0.140625 0.46875,-0.1875 0.203125,-0.140625 0.234375,-0.203125 0.296875,-0.390625 0.140625,-0.40625 0.421875,-0.75 1.671875,-0.8125 -0.171875,2.25 -0.78125,4.4375 -1.609375,6.515625 -0.0625,0.15625 -0.0625,0.171875 -0.0625,0.171875 0,0.03125 0.03125,0.078125 0.09375,0.078125 0.15625,0 0.640625,-0.21875 0.75,-0.484375 0.515625,-1.21875 1.34375,-3.5 1.640625,-6.28125 h 0.515625 c 1.21875,0 2.375,0.46875 2.375,1.46875 0,0.75 -0.71875,2.140625 -2.640625,2.203125 -0.21875,0.015625 -0.328125,0.015625 -0.609375,0.1875 -0.171875,0.125 -0.25,0.234375 -0.25,0.296875 0,0.0625 0.0625,0.0625 0.1875,0.0625 1.8125,0 4.171875,-1.53125 4.171875,-3.171875 0,-1.140625 -1.34375,-1.59375 -2.5,-1.59375 z m 0,0"
             id="id-2d926f9c-594b-4413-b53d-23dc132e8681" />
        </symbol>
      </g>
    </defs>
    <g
       id="id-1b6208db-8927-46d5-9bbe-d944624a88d1"
       transform="translate(-148.915,-127.953)">
      <g
         style="fill:#000000"
         id="id-37982e3e-3908-4934-a890-207f6fd2ca65">
        <g
           id="id-902b4090-562b-4625-846e-0988bd91127e"
           transform="translate(148.712,134.765)">
          <path
             style="color:#000000;-inkscape-stroke:none"
             d="m 3.46875,-6.8125 c -1.40625,0 -2.46875,0.6875 -2.875,1.15625 -0.359375,0.390625 -0.390625,0.6875 -0.390625,0.703125 0,0.0625 0.046875,0.078125 0.109375,0.078125 0.15625,0 0.390625,-0.140625 0.46875,-0.1875 0.203125,-0.140625 0.234375,-0.203125 0.296875,-0.390625 0.140625,-0.40625 0.421875,-0.75 1.671875,-0.8125 -0.171875,2.25 -0.78125,4.4375 -1.609375,6.515625 -0.0625,0.15625 -0.0625,0.171875 -0.0625,0.171875 0,0.03125 0.03125,0.078125 0.09375,0.078125 0.15625,0 0.640625,-0.21875 0.75,-0.484375 0.515625,-1.21875 1.34375,-3.5 1.640625,-6.28125 h 0.515625 c 1.21875,0 2.375,0.46875 2.375,1.46875 0,0.75 -0.71875,2.140625 -2.640625,2.203125 -0.21875,0.015625 -0.328125,0.015625 -0.609375,0.1875 -0.171875,0.125 -0.25,0.234375 -0.25,0.296875 0,0.0625 0.0625,0.0625 0.1875,0.0625 1.8125,0 4.171875,-1.53125 4.171875,-3.171875 0,-1.140625 -1.34375,-1.59375 -2.5,-1.59375 z m 0,0"
             id="id-dccbe1cb-62ea-484e-9c2e-f2e24195542a" />
        </g>
      </g>
    </g>
  </g>
  <g
     transform="matrix(0.352778,0,0,0.352778,-4.409725e-5,10.250329)"
     ns0:version="1.4.0"
     ns0:texconverter="pdflatex"
     ns0:pdfconverter="inkscape"
     ns0:text="$\\mathcal{D} = \\mathcal{P}$"
     ns0:preamble="/home/jola/.config/inkscape/extensions/inkscapeMadeEasy/basicLatexPackages.tex"
     ns0:scale="1.0"
     ns0:alignment="middle center"
     ns0:jacobian_sqrt="0.352778"
     id="g13543">
    <defs
       id="id-11ac4bd4-6cf3-4bfa-97c7-1c5784775895">
      <g
         id="id-021d073e-23ef-4198-a88a-99facf333d13">
        <symbol
           overflow="visible"
           id="id-fbd4892f-971d-4ddc-801a-dda3f7cfb99e">
          <path
             style="stroke:none;stroke-width:0"
             d=""
             id="id-d478465b-9257-4c6d-b494-b894d4311f8c" />
        </symbol>
        <symbol
           overflow="visible"
           id="id-539fc424-18a0-4b8f-95b6-6e53e4660d6d">
          <path
             style="stroke:none;stroke-width:0"
             d="m 2.03125,0 c 2.328125,0 5.609375,-1.78125 5.609375,-4.5 0,-0.890625 -0.421875,-1.4375 -0.90625,-1.75 C 5.875,-6.8125 4.953125,-6.8125 4,-6.8125 c -0.84375,0 -1.4375,0 -2.28125,0.359375 -1.3125,0.59375 -1.515625,1.421875 -1.515625,1.5 0,0.0625 0.046875,0.078125 0.109375,0.078125 0.15625,0 0.390625,-0.140625 0.46875,-0.1875 0.203125,-0.140625 0.234375,-0.203125 0.296875,-0.390625 0.140625,-0.40625 0.421875,-0.75 1.671875,-0.8125 -0.15625,2.09375 -0.671875,4 -1.359375,5.734375 -0.375,0.125 -0.609375,0.359375 -0.609375,0.46875 C 0.78125,-0.015625 0.78125,0 1,0 Z m 0.046875,-0.546875 c 1.140625,-2.78125 1.34375,-4.515625 1.484375,-5.71875 0.671875,0 3.21875,0 3.21875,2.203125 0,1.953125 -1.75,3.515625 -4.15625,3.515625 z m 0,0"
             id="id-d2a01a82-270e-46a3-95c9-d705a82fdf91" />
        </symbol>
        <symbol
           overflow="visible"
           id="id-dabe9adb-8a18-4304-80a1-5ae1edd81fcb">
          <path
             style="stroke:none;stroke-width:0"
             d="m 3.46875,-6.8125 c -1.40625,0 -2.46875,0.6875 -2.875,1.15625 -0.359375,0.390625 -0.390625,0.6875 -0.390625,0.703125 0,0.0625 0.046875,0.078125 0.109375,0.078125 0.15625,0 0.390625,-0.140625 0.46875,-0.1875 0.203125,-0.140625 0.234375,-0.203125 0.296875,-0.390625 0.140625,-0.40625 0.421875,-0.75 1.671875,-0.8125 -0.171875,2.25 -0.78125,4.4375 -1.609375,6.515625 -0.0625,0.15625 -0.0625,0.171875 -0.0625,0.171875 0,0.03125 0.03125,0.078125 0.09375,0.078125 0.15625,0 0.640625,-0.21875 0.75,-0.484375 0.515625,-1.21875 1.34375,-3.5 1.640625,-6.28125 h 0.515625 c 1.21875,0 2.375,0.46875 2.375,1.46875 0,0.75 -0.71875,2.140625 -2.640625,2.203125 -0.21875,0.015625 -0.328125,0.015625 -0.609375,0.1875 -0.171875,0.125 -0.25,0.234375 -0.25,0.296875 0,0.0625 0.0625,0.0625 0.1875,0.0625 1.8125,0 4.171875,-1.53125 4.171875,-3.171875 0,-1.140625 -1.34375,-1.59375 -2.5,-1.59375 z m 0,0"
             id="id-fc10bf58-d9ba-4816-a1a0-16203532816e" />
        </symbol>
        <symbol
           overflow="visible"
           id="id-9c65ce4b-af66-4730-875c-152a9224d176">
          <path
             style="stroke:none;stroke-width:0"
             d=""
             id="id-dafb7d6b-1e98-4a7f-8dd3-cf705cebede7" />
        </symbol>
        <symbol
           overflow="visible"
           id="id-59e5d0e3-5288-4b10-9c67-b8ac84b0fdfc">
          <path
             style="stroke:none;stroke-width:0"
             d="m 6.84375,-3.265625 c 0.15625,0 0.34375,0 0.34375,-0.1875 C 7.1875,-3.65625 7,-3.65625 6.859375,-3.65625 h -5.96875 c -0.140625,0 -0.328125,0 -0.328125,0.203125 0,0.1875 0.1875,0.1875 0.328125,0.1875 z m 0.015625,1.9375 c 0.140625,0 0.328125,0 0.328125,-0.203125 0,-0.1875 -0.1875,-0.1875 -0.34375,-0.1875 H 0.890625 c -0.140625,0 -0.328125,0 -0.328125,0.1875 0,0.203125 0.1875,0.203125 0.328125,0.203125 z m 0,0"
             id="id-56d2d9c6-b231-4be4-8bf7-0dd757c977f0" />
        </symbol>
      </g>
    </defs>
    <g
       id="id-b6169f50-be85-4eb3-9a60-03d49254f4b1"
       transform="translate(-148.915,-127.953)">
      <g
         style="fill:#000000"
         id="id-b590387a-2af9-47e7-b217-e01eb216b23a">
        <g
           id="id-db7468ca-b544-4d6a-994e-6612a215668e"
           transform="translate(148.712,134.765)">
          <path
             style="color:#000000;-inkscape-stroke:none"
             d="m 2.03125,0 c 2.328125,0 5.609375,-1.78125 5.609375,-4.5 0,-0.890625 -0.421875,-1.4375 -0.90625,-1.75 C 5.875,-6.8125 4.953125,-6.8125 4,-6.8125 c -0.84375,0 -1.4375,0 -2.28125,0.359375 -1.3125,0.59375 -1.515625,1.421875 -1.515625,1.5 0,0.0625 0.046875,0.078125 0.109375,0.078125 0.15625,0 0.390625,-0.140625 0.46875,-0.1875 0.203125,-0.140625 0.234375,-0.203125 0.296875,-0.390625 0.140625,-0.40625 0.421875,-0.75 1.671875,-0.8125 -0.15625,2.09375 -0.671875,4 -1.359375,5.734375 -0.375,0.125 -0.609375,0.359375 -0.609375,0.46875 C 0.78125,-0.015625 0.78125,0 1,0 Z m 0.046875,-0.546875 c 1.140625,-2.78125 1.34375,-4.515625 1.484375,-5.71875 0.671875,0 3.21875,0 3.21875,2.203125 0,1.953125 -1.75,3.515625 -4.15625,3.515625 z m 0,0"
             id="id-7c98c5a5-851b-41e4-976e-eaee52beade8" />
        </g>
      </g>
      <g
         style="fill:#000000"
         id="id-9741e364-ff84-4d6d-add4-8d0b868bcd8a">
        <g
           id="id-7075c626-840c-4a57-b9c4-50809cc1a4aa"
           transform="translate(159.441,134.765)">
          <path
             style="color:#000000;-inkscape-stroke:none"
             d="m 6.84375,-3.265625 c 0.15625,0 0.34375,0 0.34375,-0.1875 C 7.1875,-3.65625 7,-3.65625 6.859375,-3.65625 h -5.96875 c -0.140625,0 -0.328125,0 -0.328125,0.203125 0,0.1875 0.1875,0.1875 0.328125,0.1875 z m 0.015625,1.9375 c 0.140625,0 0.328125,0 0.328125,-0.203125 0,-0.1875 -0.1875,-0.1875 -0.34375,-0.1875 H 0.890625 c -0.140625,0 -0.328125,0 -0.328125,0.1875 0,0.203125 0.1875,0.203125 0.328125,0.203125 z m 0,0"
             id="id-226e98dc-e095-477f-94ea-6b8a3e83e7de" />
        </g>
      </g>
      <g
         style="fill:#000000"
         id="id-27ac5f18-3641-469c-9022-421d6ad92eca">
        <g
           id="id-f2e01f6f-52e8-44a3-b51e-8b8d96883f60"
           transform="translate(169.958,134.765)">
          <path
             style="color:#000000;-inkscape-stroke:none"
             d="m 3.46875,-6.8125 c -1.40625,0 -2.46875,0.6875 -2.875,1.15625 -0.359375,0.390625 -0.390625,0.6875 -0.390625,0.703125 0,0.0625 0.046875,0.078125 0.109375,0.078125 0.15625,0 0.390625,-0.140625 0.46875,-0.1875 0.203125,-0.140625 0.234375,-0.203125 0.296875,-0.390625 0.140625,-0.40625 0.421875,-0.75 1.671875,-0.8125 -0.171875,2.25 -0.78125,4.4375 -1.609375,6.515625 -0.0625,0.15625 -0.0625,0.171875 -0.0625,0.171875 0,0.03125 0.03125,0.078125 0.09375,0.078125 0.15625,0 0.640625,-0.21875 0.75,-0.484375 0.515625,-1.21875 1.34375,-3.5 1.640625,-6.28125 h 0.515625 c 1.21875,0 2.375,0.46875 2.375,1.46875 0,0.75 -0.71875,2.140625 -2.640625,2.203125 -0.21875,0.015625 -0.328125,0.015625 -0.609375,0.1875 -0.171875,0.125 -0.25,0.234375 -0.25,0.296875 0,0.0625 0.0625,0.0625 0.1875,0.0625 1.8125,0 4.171875,-1.53125 4.171875,-3.171875 0,-1.140625 -1.34375,-1.59375 -2.5,-1.59375 z m 0,0"
             id="id-c6c45e90-96f1-4817-aba5-dc9193b1d515" />
        </g>
      </g>
    </g>
  </g>
  <path
     style="fill:none;stroke:#000000;stroke-width:0.264583px;stroke-linecap:butt;stroke-linejoin:miter;stroke-opacity:1;marker-end:url(#ArrowAxisEnd)"
     d="M 11.020331,19.908458 V 1.4712185"
     id="path15422" />
  <path
     style="fill:none;stroke:#000000;stroke-width:0.265;stroke-linecap:butt;stroke-linejoin:miter;stroke-miterlimit:4;stroke-dasharray:none;stroke-opacity:1;marker-end:url(#ArrowAxisEnd)"
     d="M 8.8641249,16.455808 H 39.178116"
     id="path15424" />
  <path
     style="fill:none;stroke:#000000;stroke-width:0.264583px;stroke-linecap:butt;stroke-linejoin:miter;stroke-opacity:1"
     d="m 7.3950559,1.4993085 c 0,0 14.4465301,23.0446395 30.4884101,-0.17234"
     id="path15541" />
  <path
     style="fill:none;stroke:#000000;stroke-width:0.264583px;stroke-linecap:butt;stroke-linejoin:miter;stroke-opacity:1"
     d="m 13.018225,20.496348 c 0,0 9.187361,-18.8025895 18.050161,-1.44566"
     id="path20221" />
  <path
     style="fill:none;stroke:#000000;stroke-width:0.264583;stroke-linecap:butt;stroke-linejoin:miter;stroke-miterlimit:4;stroke-dasharray:0.264583, 0.793749;stroke-dashoffset:0;stroke-opacity:1"
     d="M 11.086754,11.692439 H 22.878318"
     id="path20611" />
  <g
     transform="matrix(0.352778,0,0,0.352778,29.256086,9.7890639)"
     ns0:version="1.4.0"
     ns0:texconverter="pdflatex"
     ns0:pdfconverter="inkscape"
     ns0:text="$\\Big\\}$"
     ns0:preamble="/home/jola/.config/inkscape/extensions/inkscapeMadeEasy/basicLatexPackages.tex"
     ns0:scale="1.0"
     ns0:alignment="middle center"
     ns0:jacobian_sqrt="0.352778"
     id="g20842"
     style="fill:#ffa300;fill-opacity:1">
    <defs
       id="id-e01f0148-d40d-49a4-8461-53e09107807c">
      <g
         id="id-62eed30a-f06a-4cc8-a4ab-a90405e05711">
        <symbol
           overflow="visible"
           id="id-686c474e-2fa4-490b-86ef-66c7be122d4d">
          <path
             style="stroke:none;stroke-width:0"
             d=""
             id="id-46c5c1e3-eb82-4387-aaf6-81a3914e4396" />
        </symbol>
        <symbol
           overflow="visible"
           id="id-20f62a1b-ac42-4e96-91ff-c8f1eaddece3">
          <path
             style="stroke:none;stroke-width:0"
             d="m 3.703125,11.390625 c 0,-0.875 0,-1.203125 0.515625,-1.828125 C 4.328125,9.453125 4.640625,9.109375 5.3125,8.796875 5.4375,8.734375 5.453125,8.71875 5.453125,8.578125 5.453125,8.46875 5.453125,8.4375 5.4375,8.40625 5.421875,8.390625 5.40625,8.390625 5.25,8.3125 4.203125,7.828125 3.703125,6.984375 3.703125,6.34375 V 2.203125 c 0,-0.46875 0,-1.0625 -0.515625,-1.578125 C 2.96875,0.40625 2.765625,0.1875 2.28125,-0.0625 2.1875,-0.109375 1.65625,-0.40625 1.390625,-0.40625 c -0.1875,0 -0.203125,0.015625 -0.203125,0.203125 0,0.140625 0,0.171875 0.09375,0.21875 0.390625,0.15625 1.453125,0.609375 1.640625,1.625 C 2.9375,1.75 2.9375,2.09375 2.9375,2.328125 V 5.8125 c 0,0.640625 0,0.78125 0.109375,1.0625 0.296875,0.90625 1.1875,1.421875 1.84375,1.6875 -1.15625,0.484375 -1.71875,1.15625 -1.90625,1.859375 C 2.953125,10.53125 2.9375,10.71875 2.9375,10.765625 V 15.25 c 0,0.8125 -0.625,1.4375 -1.59375,1.859375 -0.140625,0.0625 -0.15625,0.07813 -0.15625,0.21875 0,0.203125 0.015625,0.203125 0.203125,0.203125 0.28125,0 1.015625,-0.359375 1.4375,-0.671875 0.328125,-0.265625 0.859375,-0.828125 0.875,-1.5 0,-0.8125 0,-1.609375 0,-2.40625 z m 0,0"
             id="id-8167a482-17a5-43e8-a3ca-95ba9e618080" />
        </symbol>
      </g>
    </defs>
    <g
       id="id-d6aaf409-0f8a-44ad-ae0e-1f8e1222cccf"
       transform="translate(-149.9,-124.794)"
       style="fill:#ffa300;fill-opacity:1">
      <g
         style="fill:#ffa300;fill-opacity:1"
         id="id-afe64767-2081-4645-aee5-0e6e73718e35">
        <g
           id="id-cb406e0a-ef68-4379-856b-9a7acd367fa5"
           transform="translate(148.712,125.2)"
           style="fill:#ffa300;fill-opacity:1">
          <path
             style="color:#000000;fill:#ffa300;fill-opacity:1;-inkscape-stroke:none"
             d="m 3.703125,11.390625 c 0,-0.875 0,-1.203125 0.515625,-1.828125 C 4.328125,9.453125 4.640625,9.109375 5.3125,8.796875 5.4375,8.734375 5.453125,8.71875 5.453125,8.578125 5.453125,8.46875 5.453125,8.4375 5.4375,8.40625 5.421875,8.390625 5.40625,8.390625 5.25,8.3125 4.203125,7.828125 3.703125,6.984375 3.703125,6.34375 V 2.203125 c 0,-0.46875 0,-1.0625 -0.515625,-1.578125 C 2.96875,0.40625 2.765625,0.1875 2.28125,-0.0625 2.1875,-0.109375 1.65625,-0.40625 1.390625,-0.40625 c -0.1875,0 -0.203125,0.015625 -0.203125,0.203125 0,0.140625 0,0.171875 0.09375,0.21875 0.390625,0.15625 1.453125,0.609375 1.640625,1.625 C 2.9375,1.75 2.9375,2.09375 2.9375,2.328125 V 5.8125 c 0,0.640625 0,0.78125 0.109375,1.0625 0.296875,0.90625 1.1875,1.421875 1.84375,1.6875 -1.15625,0.484375 -1.71875,1.15625 -1.90625,1.859375 C 2.953125,10.53125 2.9375,10.71875 2.9375,10.765625 V 15.25 c 0,0.8125 -0.625,1.4375 -1.59375,1.859375 -0.140625,0.0625 -0.15625,0.07813 -0.15625,0.21875 0,0.203125 0.015625,0.203125 0.203125,0.203125 0.28125,0 1.015625,-0.359375 1.4375,-0.671875 0.328125,-0.265625 0.859375,-0.828125 0.875,-1.5 0,-0.8125 0,-1.609375 0,-2.40625 z m 0,0"
             id="id-7216f82b-2dca-4f5c-aa90-e0448ec947c0" />
        </g>
      </g>
    </g>
  </g>
  <g
     transform="matrix(0.352778,0,0,0.352778,31.249851,11.390692)"
     ns0:version="1.4.0"
     ns0:texconverter="pdflatex"
     ns0:pdfconverter="inkscape"
     ns0:text="$\\mathcal{P} - \\mathcal{D}$"
     ns0:preamble="/home/jola/.config/inkscape/extensions/inkscapeMadeEasy/basicLatexPackages.tex"
     ns0:scale="1.0"
     ns0:alignment="middle center"
     ns0:jacobian_sqrt="0.352778"
     id="g21057">
    <defs
       id="id-5db420cf-5d1f-48f0-91d2-582085a6d3c0">
      <g
         id="id-c8ec4281-3485-44c3-a16b-61f75a29a61c">
        <symbol
           overflow="visible"
           id="id-ff500c25-00a2-4912-9989-fbe3a84df8ca">
          <path
             style="stroke:none;stroke-width:0"
             d=""
             id="id-43fd0c12-48db-47c0-bf41-79b9c4bece87" />
        </symbol>
        <symbol
           overflow="visible"
           id="id-16b2719f-6d9a-4537-a7cc-2b914f9eff85">
          <path
             style="stroke:none;stroke-width:0"
             d="m 3.46875,-6.8125 c -1.40625,0 -2.46875,0.6875 -2.875,1.15625 -0.359375,0.390625 -0.390625,0.6875 -0.390625,0.703125 0,0.0625 0.046875,0.078125 0.109375,0.078125 0.15625,0 0.390625,-0.140625 0.46875,-0.1875 0.203125,-0.140625 0.234375,-0.203125 0.296875,-0.390625 0.140625,-0.40625 0.421875,-0.75 1.671875,-0.8125 -0.171875,2.25 -0.78125,4.4375 -1.609375,6.515625 -0.0625,0.15625 -0.0625,0.171875 -0.0625,0.171875 0,0.03125 0.03125,0.078125 0.09375,0.078125 0.15625,0 0.640625,-0.21875 0.75,-0.484375 0.515625,-1.21875 1.34375,-3.5 1.640625,-6.28125 h 0.515625 c 1.21875,0 2.375,0.46875 2.375,1.46875 0,0.75 -0.71875,2.140625 -2.640625,2.203125 -0.21875,0.015625 -0.328125,0.015625 -0.609375,0.1875 -0.171875,0.125 -0.25,0.234375 -0.25,0.296875 0,0.0625 0.0625,0.0625 0.1875,0.0625 1.8125,0 4.171875,-1.53125 4.171875,-3.171875 0,-1.140625 -1.34375,-1.59375 -2.5,-1.59375 z m 0,0"
             id="id-7b2d7cfd-a682-451e-baad-1faaa06a2658" />
        </symbol>
        <symbol
           overflow="visible"
           id="id-061361da-e06f-4393-822b-6cd16b1fe73d">
          <path
             style="stroke:none;stroke-width:0"
             d="m 6.5625,-2.296875 c 0.171875,0 0.359375,0 0.359375,-0.203125 0,-0.1875 -0.1875,-0.1875 -0.359375,-0.1875 H 1.171875 c -0.171875,0 -0.34375,0 -0.34375,0.1875 0,0.203125 0.171875,0.203125 0.34375,0.203125 z m 0,0"
             id="id-429b1695-0532-435c-9e40-aaf61629330f" />
        </symbol>
        <symbol
           overflow="visible"
           id="id-f0ed6fc6-dcd5-4769-9537-94f3945a1c36">
          <path
             style="stroke:none;stroke-width:0"
             d="m 2.03125,0 c 2.328125,0 5.609375,-1.78125 5.609375,-4.5 0,-0.890625 -0.421875,-1.4375 -0.90625,-1.75 C 5.875,-6.8125 4.953125,-6.8125 4,-6.8125 c -0.84375,0 -1.4375,0 -2.28125,0.359375 -1.3125,0.59375 -1.515625,1.421875 -1.515625,1.5 0,0.0625 0.046875,0.078125 0.109375,0.078125 0.15625,0 0.390625,-0.140625 0.46875,-0.1875 0.203125,-0.140625 0.234375,-0.203125 0.296875,-0.390625 0.140625,-0.40625 0.421875,-0.75 1.671875,-0.8125 -0.15625,2.09375 -0.671875,4 -1.359375,5.734375 -0.375,0.125 -0.609375,0.359375 -0.609375,0.46875 C 0.78125,-0.015625 0.78125,0 1,0 Z m 0.046875,-0.546875 c 1.140625,-2.78125 1.34375,-4.515625 1.484375,-5.71875 0.671875,0 3.21875,0 3.21875,2.203125 0,1.953125 -1.75,3.515625 -4.15625,3.515625 z m 0,0"
             id="id-83a93f7e-ebaf-4a18-8e4f-d107e4f62198" />
        </symbol>
      </g>
    </defs>
    <g
       id="id-cc6d0478-1749-420b-959d-f5b85f53af95"
       transform="translate(-148.915,-127.953)">
      <g
         style="fill:#000000"
         id="id-e1b9851e-875e-4ad1-a6c6-34ff3d2e606e">
        <g
           id="id-236f00bc-0569-4fb7-9d3a-22e893dd0766"
           transform="translate(148.712,134.765)">
          <path
             style="color:#000000;-inkscape-stroke:none"
             d="m 3.46875,-6.8125 c -1.40625,0 -2.46875,0.6875 -2.875,1.15625 -0.359375,0.390625 -0.390625,0.6875 -0.390625,0.703125 0,0.0625 0.046875,0.078125 0.109375,0.078125 0.15625,0 0.390625,-0.140625 0.46875,-0.1875 0.203125,-0.140625 0.234375,-0.203125 0.296875,-0.390625 0.140625,-0.40625 0.421875,-0.75 1.671875,-0.8125 -0.171875,2.25 -0.78125,4.4375 -1.609375,6.515625 -0.0625,0.15625 -0.0625,0.171875 -0.0625,0.171875 0,0.03125 0.03125,0.078125 0.09375,0.078125 0.15625,0 0.640625,-0.21875 0.75,-0.484375 0.515625,-1.21875 1.34375,-3.5 1.640625,-6.28125 h 0.515625 c 1.21875,0 2.375,0.46875 2.375,1.46875 0,0.75 -0.71875,2.140625 -2.640625,2.203125 -0.21875,0.015625 -0.328125,0.015625 -0.609375,0.1875 -0.171875,0.125 -0.25,0.234375 -0.25,0.296875 0,0.0625 0.0625,0.0625 0.1875,0.0625 1.8125,0 4.171875,-1.53125 4.171875,-3.171875 0,-1.140625 -1.34375,-1.59375 -2.5,-1.59375 z m 0,0"
             id="id-1916361a-67d7-4610-8eca-6bb1cd8eca2c" />
        </g>
      </g>
      <g
         style="fill:#000000"
         id="id-1294c05d-bfda-4500-a5c7-7f54e1dae9f2">
        <g
           id="id-2a573a8f-85e4-40aa-a0d2-ed11edd8287d"
           transform="translate(158.671,134.765)">
          <path
             style="color:#000000;-inkscape-stroke:none"
             d="m 6.5625,-2.296875 c 0.171875,0 0.359375,0 0.359375,-0.203125 0,-0.1875 -0.1875,-0.1875 -0.359375,-0.1875 H 1.171875 c -0.171875,0 -0.34375,0 -0.34375,0.1875 0,0.203125 0.171875,0.203125 0.34375,0.203125 z m 0,0"
             id="id-f9b82912-aba9-40d8-9f9f-72635fb6e158" />
        </g>
      </g>
      <g
         style="fill:#000000"
         id="id-c2b23733-e605-497c-babb-e6eb58d6a029">
        <g
           id="id-c4abe242-44de-441d-bfb0-b97ff3ff0b3f"
           transform="translate(168.641,134.765)">
          <path
             style="color:#000000;-inkscape-stroke:none"
             d="m 2.03125,0 c 2.328125,0 5.609375,-1.78125 5.609375,-4.5 0,-0.890625 -0.421875,-1.4375 -0.90625,-1.75 C 5.875,-6.8125 4.953125,-6.8125 4,-6.8125 c -0.84375,0 -1.4375,0 -2.28125,0.359375 -1.3125,0.59375 -1.515625,1.421875 -1.515625,1.5 0,0.0625 0.046875,0.078125 0.109375,0.078125 0.15625,0 0.390625,-0.140625 0.46875,-0.1875 0.203125,-0.140625 0.234375,-0.203125 0.296875,-0.390625 0.140625,-0.40625 0.421875,-0.75 1.671875,-0.8125 -0.15625,2.09375 -0.671875,4 -1.359375,5.734375 -0.375,0.125 -0.609375,0.359375 -0.609375,0.46875 C 0.78125,-0.015625 0.78125,0 1,0 Z m 0.046875,-0.546875 c 1.140625,-2.78125 1.34375,-4.515625 1.484375,-5.71875 0.671875,0 3.21875,0 3.21875,2.203125 0,1.953125 -1.75,3.515625 -4.15625,3.515625 z m 0,0"
             id="id-668b4ec8-ce72-4504-9261-20af3ca3693f" />
        </g>
      </g>
    </g>
  </g>
</svg>
